<svg xmlns="http://www.w3.org/2000/svg" viewBox="0 0 568 100">
    <title>laravel prompts logo</title>
    <circle fill="white" cx="50" cy="50" r="50"/>
    <circle fill="#18181b" cx="50" cy="50" r="48"/>
    <polygon fill="#4ade80" points="23,39.5 83,60.5 83,36.5 23,15.5 "/>
    <polygon fill="#bbf7d0" points="83,63.5 23,84.5 23,60.5 83,39.5 "/>
    <path fill="white" d="M320.1,61.8l0.2-1.8c0.7-5.7-0.9-11.2-4.4-15.1c-3.2-3.6-7.7-5.6-12.6-5.6c-9.7,0-17.5,8-17.5,17.8 c0,10.7,7.4,17.8,18.4,17.8c6.6,0,10.5-2.8,14.7-7.3l1.5-1.6l-5.6-4.3L320.1,61.8L320.1,61.8z M303.3,48.9c3.6,0,5.2,2,5.9,3.6 h-11.8C298.1,50.9,299.7,48.9,303.3,48.9z M303.7,65.4c-3.5,0-5.4-1.9-6.3-3.6h13.4C310,62.7,307.3,65.4,303.7,65.4z M185.8,41.5 c-0.4-0.2-0.8-0.4-1.2-0.6c-2-1-4.1-1.5-6.2-1.5c-2.6,0-5,0.5-7.1,1.4s-4,2.3-5.6,3.9c-1.5,1.6-2.7,3.6-3.6,5.7 c-0.8,2.1-1.3,4.4-1.3,6.8c0,2.2,0.4,4.4,1.1,6.4h-12.6V25H138v49.2h25.5v-7.8c0.7,1.1,1.4,2.2,2.3,3.2c1.5,1.7,3.4,3,5.6,3.9 c2.1,0.9,4.5,1.4,7.1,1.4c2.1,0,4.2-0.5,6.2-1.5c0.4-0.2,0.8-0.4,1.2-0.7v1.4H197v-34h-11.1v1.4H185.8z M185.3,60.2 c-0.3,0.9-0.8,1.7-1.4,2.4c-0.6,0.7-1.3,1.2-2.2,1.6c-0.8,0.4-1.8,0.6-2.8,0.6s-2-0.2-2.8-0.6c-0.9-0.4-1.6-0.9-2.2-1.6 c-0.6-0.7-1.1-1.4-1.4-2.4c-0.3-0.9-0.5-2-0.5-3c0-1.1,0.2-2.1,0.5-3s0.8-1.7,1.4-2.4c0.6-0.7,1.3-1.2,2.2-1.6 c0.8-0.4,1.7-0.6,2.8-0.6s2,0.2,2.8,0.6c0.9,0.4,1.6,0.9,2.2,1.6c0.6,0.7,1.1,1.5,1.4,2.4c0.3,0.9,0.5,1.9,0.5,3 C185.8,58.2,185.7,59.2,185.3,60.2z M332,25v49.2h-11.1V25H332z M279.4,40.1l-7.5,19.5l-7.5-19.5h-10h-1.5h-9.6v1.4 c-0.4-0.2-0.8-0.4-1.2-0.6c-2-1-4.1-1.5-6.2-1.5c-2.6,0-5,0.5-7.1,1.4s-4,2.3-5.6,3.9c-0.6,0.6-1.1,1.3-1.6,2.1v-6.6h-23.2v34.1 h11.1V51h10c-0.7,2-1.1,4-1.1,6.1c0,2.4,0.4,4.7,1.3,6.8c0.8,2.1,2,4,3.6,5.7c1.5,1.7,3.4,3,5.6,3.9c2.2,0.9,4.5,1.4,7.1,1.4 c2.1,0,4.2-0.5,6.2-1.5c0.4-0.2,0.8-0.4,1.2-0.7v1.4h11.1V44l11.7,30.2h11.6L291,40.1H279.4z M242.8,60.2c-0.3,0.9-0.8,1.7-1.4,2.4 c-0.6,0.7-1.3,1.2-2.2,1.6c-0.8,0.4-1.8,0.6-2.8,0.6s-2-0.2-2.8-0.6c-0.9-0.4-1.6-0.9-2.2-1.6c-0.6-0.7-1.1-1.4-1.4-2.4 c-0.3-0.9-0.5-2-0.5-3c0-1.1,0.2-2.1,0.5-3s0.8-1.7,1.4-2.4c0.6-0.7,1.3-1.2,2.2-1.6c0.8-0.4,1.7-0.6,2.8-0.6c1,0,2,0.2,2.8,0.6 c0.9,0.4,1.6,0.9,2.2,1.6c0.6,0.7,1.1,1.5,1.4,2.4c0.3,0.9,0.5,1.9,0.5,3C243.3,58.2,243.2,59.2,242.8,60.2z"/>
    <path d="M147.5,65.6h14v6.7H140V27h7.5V65.6z M187.8,42.1h7.1v30.1h-7.1v-4.1c-1,1.5-2.3,2.7-4.1,3.6s-3.5,1.3-5.3,1.3 c-2.3,0-4.4-0.4-6.3-1.3c-1.9-0.8-3.5-2-4.9-3.5s-2.4-3.1-3.2-5s-1.1-3.9-1.1-6.1c0-2.1,0.4-4.1,1.1-6c0.8-1.9,1.8-3.6,3.2-5.1 s3-2.6,4.9-3.5c1.9-0.8,4-1.3,6.3-1.3c1.8,0,3.5,0.4,5.3,1.3c1.8,0.9,3.1,2,4.1,3.6V42.1z M187.8,57.2c0-1.3-0.2-2.5-0.6-3.7 c-0.4-1.2-1-2.2-1.8-3c-0.8-0.9-1.7-1.6-2.8-2.1s-2.3-0.8-3.7-0.8c-1.3,0-2.6,0.3-3.6,0.8c-1.1,0.5-2,1.2-2.8,2.1 c-0.8,0.9-1.4,1.9-1.8,3c-0.4,1.2-0.6,2.4-0.6,3.7s0.2,2.5,0.6,3.7c0.4,1.2,1,2.2,1.8,3c0.8,0.9,1.7,1.6,2.8,2.1s2.3,0.8,3.6,0.8 s2.6-0.3,3.7-0.8c1.1-0.5,2-1.2,2.8-2.1s1.4-1.9,1.8-3C187.6,59.7,187.8,58.5,187.8,57.2z M245.3,42.1h7.1v30.1h-7.1v-4.1 c-1,1.5-2.3,2.7-4.1,3.6s-3.5,1.3-5.3,1.3c-2.3,0-4.4-0.4-6.3-1.3c-1.9-0.8-3.5-2-4.9-3.5s-2.4-3.1-3.2-5s-1.1-3.9-1.1-6.1 c0-2.1,0.4-4.1,1.1-6c0.8-1.9,1.8-3.6,3.2-5.1s3-2.6,4.9-3.5c1.9-0.8,4-1.3,6.3-1.3c1.8,0,3.5,0.4,5.3,1.3c1.8,0.9,3.1,2,4.1,3.6 V42.1z M245.3,57.2c0-1.3-0.2-2.5-0.6-3.7c-0.4-1.2-1-2.2-1.8-3c-0.8-0.9-1.7-1.6-2.8-2.1s-2.3-0.8-3.7-0.8c-1.3,0-2.6,0.3-3.6,0.8 c-1.1,0.5-2,1.2-2.8,2.1c-0.8,0.9-1.4,1.9-1.8,3c-0.4,1.2-0.6,2.4-0.6,3.7s0.2,2.5,0.6,3.7c0.4,1.2,1,2.2,1.8,3 c0.8,0.9,1.7,1.6,2.8,2.1s2.3,0.8,3.6,0.8s2.6-0.3,3.7-0.8c1.1-0.5,2-1.2,2.8-2.1s1.4-1.9,1.8-3C245.1,59.7,245.3,58.5,245.3,57.2z M322.9,27v45.2h7.1V27H322.9z M200.5,72.2h7.1V49h12.1v-6.9h-19.2L200.5,72.2L200.5,72.2z M280.8,42.1l-8.9,23.1L263,42.1h-7.2 l11.6,30.1h8.9l11.6-30.1H280.8z M318.3,59.8h-23.5c0,2.6,2.6,7.6,8.9,7.6c5.4,0,9-4.7,9-4.7l4.8,3.7c-4.3,4.5-7.8,6.6-13.3,6.6 c-9.8,0-16.4-6.2-16.4-15.8c0-8.7,6.9-15.8,15.5-15.8C313,41.3,319.6,49.8,318.3,59.8z M311.8,54.6c-0.1-0.6-1-7.6-8.5-7.6 c-7.6,0-8.4,7-8.4,7.6H311.8z"/>
    <path fill="white" d="M379.9,30.8c-2.8-2.4-6.6-3.6-11.4-3.6H350v47h7.7V54.8h10.8c4.7,0,8.5-1.2,11.4-3.7c2.9-2.5,4.4-5.9,4.4-10.2 C384.3,36.7,382.8,33.3,379.9,30.8z M374.6,45.8c-1.3,1.2-3.5,1.7-6.3,1.7h-10.5V34.4h10.5c2.9,0,5,0.6,6.3,1.7 c1.3,1.1,1.9,2.7,1.9,4.8C376.5,43.1,375.8,44.7,374.6,45.8z M406.1,39.8l-1.7-0.4c-0.9-0.2-1.9-0.3-3.1-0.3c-2.5,0-4.9,0.7-6.9,1.9c-0.4,0.2-0.8,0.5-1.1,0.8l-0.2-2h-7.6 l0.3,2.3c0.3,2.4,0.5,5.1,0.5,8.1v23.8h7.6V54.4c0-2.3,0.6-4.1,1.8-5.8c1.1-1.4,2.8-2.1,5.2-2.1c0.9,0,1.7,0.1,2.4,0.2l2.3,0.5 L406.1,39.8z M427.8,41.4c-2.4-1.5-5.2-2.2-8.3-2.2c-3.1,0-5.9,0.7-8.4,2.2c-2.4,1.5-4.3,3.6-5.6,6.3 c-1.3,2.6-1.9,5.7-1.9,9.1c0,3.4,0.6,6.5,1.9,9.1c1.3,2.7,3.2,4.8,5.6,6.3c2.4,1.5,5.2,2.2,8.4,2.2c3.1,0,5.9-0.8,8.3-2.2 c2.4-1.5,4.3-3.6,5.6-6.3c1.3-2.6,1.9-5.7,1.9-9.1c0-3.4-0.6-6.5-1.9-9.1C432.1,45,430.2,42.9,427.8,41.4z M425.4,64.8 c-1.4,1.7-3.3,2.5-5.9,2.5c-2.6,0-4.5-0.8-5.8-2.5c-1.4-1.8-2.1-4.4-2.1-8c0-3.5,0.7-6.1,2.2-8c1.4-1.7,3.3-2.5,5.8-2.5 c2.5,0,4.4,0.8,5.8,2.5c1.5,1.8,2.2,4.5,2.2,8C427.5,60.4,426.8,63,425.4,64.8z M472.7,39.2c-2.7,0-5.1,0.6-7.2,1.8c-1,0.6-2,1.4-2.7,2.2c-1.7-2.2-4.6-4-9.5-4c-2.6,0-4.9,0.6-6.9,1.9 c-0.4,0.3-0.8,0.5-1.2,0.8l-0.2-2h-7.6l0.3,2.3c0.3,2.4,0.5,5.1,0.5,8.1v23.8h7.6V54.7c0-2.7,0.6-4.7,1.9-6.2 c1.2-1.4,2.9-2.1,5-2.1c1.7,0,2.9,0.4,3.6,1.3c0.6,0.7,1.2,2.2,1.2,5.4v21h7.7V54.7c0-2.7,0.6-4.8,1.9-6.2c1.2-1.4,2.8-2.1,5-2.1 c1.7,0,2.9,0.4,3.6,1.3c0.5,0.7,1.2,2.2,1.2,5.4v21h7.7V52.9C484.6,47.8,483.1,39.2,472.7,39.2z M513.4,41.5c-2.3-1.5-5.1-2.3-8.1-2.3c-2.9,0-5.5,0.7-7.6,2c-0.5,0.3-1,0.7-1.4,1.1l-0.2-2.4h-7.6l0.3,2.3 c0.3,2.4,0.5,5.1,0.5,8.1v36.9h7.6V71.9c0.3,0.2,0.6,0.4,0.9,0.7c2.1,1.3,4.6,2,7.5,2c3,0,5.7-0.8,8.1-2.2c2.4-1.5,4.2-3.6,5.5-6.3 c1.2-2.6,1.8-5.6,1.8-9.1c0-3.4-0.6-6.5-1.9-9.1C517.6,45.1,515.7,43,513.4,41.5z M510.7,64.8c-1.4,1.7-3.3,2.5-5.9,2.5 c-2.5,0-4.4-0.8-5.8-2.5c-1.4-1.8-2.2-4.5-2.2-7.9c0-3.5,0.7-6.2,2.2-8c1.3-1.7,3.2-2.5,5.8-2.5c2.5,0,4.4,0.8,5.8,2.6 c1.5,1.9,2.2,4.6,2.2,8C512.9,60.4,512.1,63,510.7,64.8z M558.4,54.1l-5.2-1.3c-1.3-0.3-2.3-0.8-2.8-1.3c-0.3-0.3-0.7-0.8-0.7-1.9c0-1,0.3-1.7,1.1-2.2 c0.9-0.7,2.4-1,4.2-1c2.8,0,5.4,1,7.8,3.1l2,1.7l3.1-6.4l-0.9-1c-1.4-1.5-3.2-2.7-5.3-3.5c-2-0.8-4.3-1.2-6.6-1.2 c-3.8,0-6.9,0.9-9.3,2.8c-2.5,2-3.8,4.7-3.8,7.9c0,2.5,0.9,4.6,2.6,6.5c1.7,1.7,3.9,2.9,6.7,3.6l5.1,1.1c2,0.5,3,1.1,3.4,1.4 c0.3,0.2,0.6,0.7,0.6,1.8c0,1-0.3,1.6-1.1,2.1c-0.9,0.6-2.5,1-4.6,1c-1.9,0-3.6-0.2-5-0.7c-1.4-0.5-2.8-1.3-4.2-2.5l-2-1.7l-2,4.4 v-1l-2.7,0.9c-0.8,0.3-1.7,0.4-2.6,0.4c-1.2,0-2.1-0.3-2.7-0.8c-0.2-0.2-0.8-1.1-0.8-3.6v-16h8.9v-7h-8.9V29.6l-7.7,2.9v7.4h-6v7h6 v16.7c0,3.5,1,6.2,2.8,8.1c1.9,1.9,4.5,2.8,7.6,2.8c1.5,0,3-0.2,4.4-0.5l1.5-0.4v-3.7l0.1,0.1c3.2,3,7.6,4.6,13,4.6 c4,0,7.2-0.9,9.6-2.7c2.6-1.9,3.9-4.5,3.9-7.7C568,60.5,566.3,55.9,558.4,54.1z" />
    <path d="M352,29.2h16.5c4.3,0,7.7,1,10.1,3.1c2.4,2.1,3.7,5,3.7,8.6c0,3.7-1.2,6.6-3.7,8.7c-2.5,2.1-5.8,3.2-10.1,3.2h-12.8v19.3 H352V29.2z M368.2,49.6c3.4,0,5.9-0.7,7.6-2.2c1.7-1.5,2.6-3.6,2.6-6.4c0-2.7-0.9-4.8-2.6-6.3c-1.7-1.5-4.3-2.2-7.6-2.2h-12.5v17.2 H368.2z M404,41.4l-0.2,3.3c-0.8-0.2-1.7-0.2-2.8-0.2c-3,0-5.3,1-6.8,2.9c-1.5,2-2.3,4.3-2.3,7v17.7h-3.6V50.3 c0-3.1-0.2-5.9-0.5-8.4h3.5l0.5,5.6c0.8-2.1,2-3.6,3.7-4.7c1.7-1.1,3.6-1.6,5.8-1.6C402.4,41.2,403.3,41.3,404,41.4z M412.2,70.6c-2.1-1.3-3.7-3.1-4.9-5.5c-1.1-2.4-1.7-5.1-1.7-8.3c0-3.1,0.6-5.9,1.7-8.3c1.1-2.4,2.8-4.2,4.9-5.5 c2.1-1.3,4.5-1.9,7.3-1.9c2.7,0,5.1,0.6,7.2,1.9c2.1,1.3,3.7,3.1,4.8,5.5c1.1,2.4,1.7,5.1,1.7,8.3c0,3.1-0.6,5.9-1.7,8.3 c-1.1,2.4-2.8,4.2-4.8,5.5c-2.1,1.3-4.5,1.9-7.2,1.9C416.8,72.6,414.3,71.9,412.2,70.6z M426.9,66.1c1.7-2.2,2.6-5.2,2.6-9.2 c0-3.9-0.9-7-2.6-9.2c-1.8-2.2-4.2-3.3-7.3-3.3c-3.2,0-5.6,1.1-7.4,3.3c-1.8,2.2-2.6,5.3-2.6,9.2c0,4,0.9,7.1,2.6,9.2 c1.7,2.1,4.2,3.2,7.4,3.2C422.7,69.3,425.2,68.2,426.9,66.1z M482.6,52.9v19.3H479v-19c0-3.1-0.5-5.3-1.6-6.7c-1.1-1.4-2.8-2.1-5.2-2.1c-2.8,0-4.9,0.9-6.5,2.8 c-1.6,1.9-2.4,4.4-2.4,7.5v17.4h-3.7v-19c0-3.1-0.6-5.3-1.7-6.7c-1.1-1.4-2.8-2.1-5.2-2.1c-2.7,0-4.9,0.9-6.5,2.8 c-1.6,1.9-2.4,4.4-2.4,7.5v17.4h-3.6V50.3c0-3.1-0.2-5.9-0.5-8.4h3.5l0.5,5.4c0.8-2,2.1-3.5,3.8-4.6c1.7-1,3.6-1.6,5.8-1.6 c4.9,0,8,2,9.3,5.9c0.8-1.9,2.2-3.3,3.9-4.3c1.8-1,3.8-1.6,6.2-1.6C479.3,41.2,482.6,45.1,482.6,52.9z M512.3,43.1c2,1.3,3.6,3.2,4.7,5.6c1.1,2.4,1.7,5.2,1.7,8.3c0,3.1-0.6,5.9-1.7,8.2c-1.1,2.3-2.7,4.1-4.7,5.4 c-2,1.3-4.4,1.9-7,1.9c-2.5,0-4.7-0.6-6.5-1.7c-1.8-1.1-3.1-2.7-4-4.8v19.1h-3.6V50.3c0-3.1-0.2-5.9-0.5-8.4h3.5l0.5,5.9 c0.9-2.1,2.2-3.8,4.1-4.9c1.8-1.1,4-1.7,6.5-1.7C508,41.2,510.3,41.8,512.3,43.1z M512.2,66.1c1.8-2.2,2.6-5.2,2.6-9.1 c0-3.9-0.9-7-2.6-9.3c-1.8-2.2-4.2-3.4-7.3-3.4c-3.2,0-5.7,1.1-7.4,3.3c-1.7,2.2-2.6,5.3-2.6,9.2c0,3.9,0.9,7,2.6,9.2 c1.7,2.2,4.2,3.3,7.3,3.3C508,69.3,510.5,68.2,512.2,66.1z M530.7,44.9v18c0,2.4,0.5,4.1,1.4,5c0.9,0.9,2.3,1.4,4.1,1.4c1.1,0,2.2-0.2,3.2-0.5V72c-1.3,0.3-2.6,0.5-3.9,0.5 c-2.6,0-4.7-0.7-6.2-2.2c-1.5-1.5-2.3-3.7-2.3-6.7V44.9h-6v-3h6v-8l3.7-1.4v9.4h8.9v3H530.7z M542.8,68.5l1.3-2.8c1.6,1.3,3.2,2.3,4.8,2.8c1.6,0.6,3.5,0.8,5.6,0.8c2.5,0,4.4-0.4,5.7-1.3c1.3-0.9,2-2.1,2-3.8 c0-1.4-0.4-2.4-1.3-3.2c-0.9-0.8-2.3-1.4-4.2-1.9l-5.1-1.1c-2.4-0.6-4.3-1.6-5.7-3c-1.4-1.4-2.1-3.1-2.1-5.1c0-2.7,1-4.8,3-6.4 c2-1.6,4.7-2.4,8.1-2.4c2.1,0,4.1,0.3,5.9,1c1.8,0.7,3.3,1.7,4.5,3l-1.4,2.8c-2.8-2.4-5.8-3.6-9.1-3.6c-2.3,0-4.1,0.5-5.4,1.4 c-1.3,0.9-1.9,2.2-1.9,3.9c0,1.4,0.4,2.5,1.2,3.3c0.8,0.8,2.1,1.5,3.8,1.9l5.2,1.3c5.4,1.2,8.1,3.9,8.1,8c0,2.5-1,4.6-3.1,6.1 c-2.1,1.5-4.9,2.3-8.4,2.3C549.6,72.6,545.7,71.2,542.8,68.5z" />
</svg>
