<svg width="536" height="69" viewBox="0 0 536 69" fill="none" xmlns="http://www.w3.org/2000/svg">
<rect width="64" height="64" fill="#FF95A8"/>
<path d="M48 42.7073V49H29.2069L38.2419 42.7068L48 42.7073Z" fill="#FDFDFC"/>
<path d="M46.7542 30.208L22.3291 47.8882L19 43.2465L36.7164 30.422L19.0995 18.7792L22.2295 14L46.7542 30.208Z" fill="#FDFDFC"/>
<path d="M103.659 7.625H96V55.5535H118.046V48.5012H103.659V7.625Z" fill="white"/>
<path d="M145.087 27.9603C144.109 26.3627 142.722 25.1079 140.924 24.1946C139.126 23.2817 137.316 22.8251 135.496 22.8251C133.141 22.8251 130.988 23.2703 129.035 24.1602C127.08 25.0501 125.404 26.2723 124.006 27.8235C122.607 29.3757 121.519 31.1675 120.742 33.1978C119.964 35.2297 119.576 37.3643 119.576 39.6003C119.576 41.8831 119.964 44.0283 120.742 46.0362C121.519 48.0455 122.607 49.8258 124.006 51.377C125.404 52.9292 127.08 54.15 129.035 55.0399C130.988 55.9298 133.141 56.375 135.496 56.375C137.316 56.375 139.126 55.9183 140.924 55.0059C142.722 54.0936 144.11 52.8383 145.087 51.2402V55.5539H152.346V23.6471H145.087V27.9603ZM144.421 43.5027C143.977 44.7355 143.355 45.8081 142.556 46.7209C141.756 47.6342 140.791 48.3644 139.659 48.912C138.526 49.46 137.271 49.7335 135.895 49.7335C134.518 49.7335 133.275 49.46 132.165 48.912C131.054 48.364 130.1 47.6342 129.301 46.7209C128.502 45.8081 127.891 44.7355 127.469 43.5027C127.047 42.2705 126.837 40.9693 126.837 39.6003C126.837 38.2307 127.047 36.9296 127.469 35.6973C127.89 34.465 128.502 33.3929 129.301 32.4796C130.1 31.5672 131.055 30.8361 132.165 30.2886C133.275 29.7406 134.518 29.467 135.895 29.467C137.271 29.467 138.526 29.7406 139.659 30.2886C140.791 30.8366 141.756 31.5672 142.556 32.4796C143.355 33.3929 143.977 34.465 144.421 35.6973C144.864 36.9296 145.087 38.2307 145.087 39.6003C145.087 40.9693 144.864 42.2705 144.421 43.5027Z" fill="white"/>
<path d="M204.099 27.9603C203.121 26.3627 201.734 25.1079 199.936 24.1946C198.138 23.2817 196.328 22.8251 194.508 22.8251C192.153 22.8251 190.001 23.2703 188.047 24.1602C186.093 25.0501 184.417 26.2723 183.018 27.8235C181.619 29.3757 180.531 31.1675 179.754 33.1978C178.977 35.2297 178.589 37.3643 178.589 39.6003C178.589 41.8831 178.977 44.0283 179.754 46.0362C180.531 48.0455 181.619 49.8258 183.018 51.377C184.417 52.9292 186.092 54.15 188.047 55.0399C190 55.9298 192.153 56.375 194.508 56.375C196.328 56.375 198.138 55.9183 199.936 55.0059C201.734 54.0936 203.122 52.8383 204.099 51.2402V55.5539H211.359V23.6471H204.099V27.9603ZM203.433 43.5027C202.988 44.7355 202.367 45.8081 201.568 46.7209C200.768 47.6342 199.803 48.3644 198.67 48.912C197.538 49.46 196.283 49.7335 194.907 49.7335C193.53 49.7335 192.286 49.46 191.177 48.912C190.066 48.364 189.112 47.6342 188.313 46.7209C187.513 45.8081 186.903 44.7355 186.481 43.5027C186.058 42.2705 185.849 40.9693 185.849 39.6003C185.849 38.2307 186.058 36.9296 186.481 35.6973C186.902 34.465 187.513 33.3929 188.313 32.4796C189.112 31.5672 190.067 30.8361 191.177 30.2886C192.286 29.7406 193.53 29.467 194.907 29.467C196.283 29.467 197.538 29.7406 198.67 30.2886C199.803 30.8366 200.768 31.5672 201.568 32.4796C202.367 33.3929 202.988 34.465 203.433 35.6973C203.876 36.9296 204.099 38.2307 204.099 39.6003C204.099 40.9693 203.876 42.2705 203.433 43.5027Z" fill="white"/>
<path d="M291 7.625H283.741V55.5535H291V7.625Z" fill="white"/>
<path d="M158.075 55.5535H165.335V30.9901H177.79V23.6471H158.075V55.5535Z" fill="white"/>
<path d="M240.465 23.6471L231.34 48.0804L222.216 23.6471H214.862L226.778 55.5535H235.902L247.818 23.6471H240.465Z" fill="white"/>
<path d="M263.652 22.8265C254.762 22.8265 247.725 30.3369 247.725 39.6007C247.725 49.8416 254.536 56.375 264.582 56.375C270.205 56.375 273.795 54.1648 278.181 49.3514L273.276 45.4504C273.273 45.4542 269.574 50.4469 264.051 50.4469C257.631 50.4469 254.928 45.1262 254.928 42.3733H279.013C280.278 31.8326 273.537 22.8265 263.652 22.8265ZM254.947 36.8278C255.003 36.2138 255.839 28.7541 263.594 28.7541C271.349 28.7541 272.291 36.2128 272.345 36.8278H254.947Z" fill="white"/>
<path fill-rule="evenodd" clip-rule="evenodd" d="M470.695 22.6733C473.551 22.6734 476.029 23.3665 478.129 24.7524C480.271 26.1384 481.929 28.0704 483.105 30.5483C484.281 33.0263 484.87 35.9247 484.87 39.2427C484.87 42.6024 484.261 45.5422 483.043 48.062C481.825 50.5819 480.124 52.5354 477.94 53.9214C475.756 55.3074 473.194 56.0005 470.254 56.0005C467.23 56.0005 464.689 55.2654 462.631 53.7954C461.278 52.8288 460.208 51.5974 459.418 50.104V68.3481H454.378V23.3032H459.103V28.9351C459.97 27.2451 461.25 25.871 462.946 24.8149C465.172 23.3871 467.756 22.6733 470.695 22.6733ZM469.498 27.0835C466.306 27.0835 463.786 28.1964 461.938 30.4224C460.09 32.6063 459.166 35.6094 459.166 39.4312C459.166 43.1689 460.09 46.13 461.938 48.314C463.786 50.498 466.306 51.5903 469.498 51.5903C472.69 51.5903 475.189 50.4979 476.995 48.314C478.801 46.0881 479.704 43.0643 479.704 39.2427C479.704 35.4627 478.801 32.5009 476.995 30.3589C475.189 28.175 472.69 27.0835 469.498 27.0835Z" fill="#A1A09A"/>
<path fill-rule="evenodd" clip-rule="evenodd" d="M376.865 22.6733C380.057 22.6734 382.829 23.3871 385.181 24.8149C387.575 26.2429 389.423 28.1964 390.725 30.6743C392.069 33.1523 392.741 36.0087 392.741 39.2427C392.741 42.4345 392.069 45.3116 390.725 47.8735C389.423 50.3934 387.575 52.388 385.181 53.8579C382.829 55.3278 380.057 56.0629 376.865 56.063C373.715 56.063 370.943 55.3279 368.549 53.8579C366.155 52.3879 364.285 50.3935 362.941 47.8735C361.639 45.3116 360.989 42.4345 360.989 39.2427C360.989 36.0087 361.661 33.1523 363.005 30.6743C364.349 28.1963 366.197 26.2429 368.549 24.8149C370.943 23.387 373.715 22.6733 376.865 22.6733ZM376.865 26.9575C373.673 26.9575 371.09 28.0705 369.116 30.2964C367.142 32.5224 366.154 35.4833 366.154 39.1792C366.154 41.657 366.596 43.841 367.478 45.731C368.36 47.6209 369.598 49.1126 371.194 50.2046C372.832 51.2546 374.723 51.7798 376.865 51.7798C379.049 51.7797 380.939 51.2545 382.535 50.2046C384.131 49.1126 385.37 47.6209 386.252 45.731C387.134 43.841 387.575 41.657 387.575 39.1792C387.575 35.4834 386.588 32.5223 384.614 30.2964C382.682 28.0705 380.099 26.9576 376.865 26.9575Z" fill="#A1A09A"/>
<path d="M522.293 22.6733C525.779 22.6733 528.615 23.5129 530.799 25.1929C532.983 26.8728 534.222 29.2042 534.516 32.186H529.664C529.37 30.4642 528.572 29.1412 527.271 28.2173C525.969 27.2933 524.246 26.8316 522.104 26.8315C520.046 26.8315 518.45 27.2308 517.316 28.0288C516.183 28.7848 515.615 29.8764 515.615 31.3042C515.615 32.3962 516.015 33.3412 516.812 34.1392C517.652 34.9372 519.039 35.6098 520.971 36.1558L526.011 37.5415C528.993 38.3395 531.239 39.5579 532.751 41.1958C534.263 42.8338 535.02 44.8077 535.02 47.1177C535.019 49.9314 533.948 52.136 531.807 53.7319C529.665 55.2859 526.704 56.0629 522.924 56.063C518.976 56.063 515.826 55.16 513.474 53.354C511.122 51.506 509.777 48.9024 509.441 45.5425H514.292C514.586 47.6003 515.489 49.1751 517.001 50.2671C518.513 51.3591 520.53 51.9058 523.05 51.9058C525.276 51.9057 527.018 51.485 528.278 50.645C529.538 49.805 530.168 48.6082 530.168 47.0542C530.168 45.9623 529.812 45.0172 529.098 44.2192C528.384 43.3792 526.955 42.6861 524.813 42.1401L519.647 40.8169C516.707 40.0609 514.502 38.906 513.032 37.3521C511.562 35.7561 510.827 33.866 510.827 31.6821C510.827 28.9103 511.856 26.7263 513.914 25.1304C515.972 23.4924 518.765 22.6734 522.293 22.6733Z" fill="#A1A09A"/>
<path d="M498.085 23.3062H507.661V27.5903H498.085V46.4907C498.085 48.2966 498.548 49.6195 499.472 50.4595C500.396 51.2994 501.908 51.7192 504.008 51.7192C504.848 51.7192 505.562 51.6772 506.149 51.5933C506.779 51.4673 507.283 51.3208 507.661 51.1528V55.436C507.241 55.604 506.632 55.73 505.834 55.814C505.078 55.9399 504.217 56.0034 503.251 56.0034C499.681 56.0034 497.077 55.2057 495.439 53.6099C493.843 51.9719 493.046 49.6192 493.046 46.5532V27.5903H486.431V23.3062H493.046V15.8091L498.085 13.9194V23.3062Z" fill="#A1A09A"/>
<path d="M358.492 27.4438H346.939V55.4438H341.9V23.314H358.492V27.4438Z" fill="#A1A09A"/>
<path fill-rule="evenodd" clip-rule="evenodd" d="M321.018 7.43506C324.252 7.43506 327.003 7.96025 329.271 9.01025C331.539 10.0602 333.261 11.5725 334.437 13.5464C335.655 15.5204 336.264 18.8935 336.264 21.6655C336.264 24.4374 335.654 27.8313 334.437 29.8472C333.261 31.8209 331.539 33.3539 329.271 34.4458C327.003 35.5378 324.252 36.0845 321.018 36.0845H308.166V55.4351H303V7.43506H321.018ZM308.166 31.5483H320.829C324.189 31.5483 326.73 30.7918 328.452 29.2798C330.216 27.7258 331.098 24.5213 331.098 21.6655C331.098 18.8095 330.237 15.6463 328.515 14.1763C326.793 12.7063 324.231 11.9712 320.829 11.9712H308.166V31.5483Z" fill="#A1A09A"/>
<path d="M436.1 22.6733C439.208 22.6733 441.749 23.5978 443.723 25.4458C445.696 27.2517 446.684 29.7082 446.684 32.8159V55.4331H441.644V34.1392C441.644 31.7034 441.098 29.9186 440.006 28.7847C438.914 27.6508 437.339 27.0836 435.281 27.0835C433.349 27.0835 431.606 27.5452 430.052 28.4692C428.498 29.3932 427.259 30.6742 426.335 32.312C425.453 33.95 425.012 35.8614 425.012 38.0454V55.4331H419.972V34.1392C419.972 31.7034 419.426 29.9187 418.334 28.7847C417.242 27.6507 415.666 27.0835 413.608 27.0835C411.677 27.0836 409.934 27.5453 408.38 28.4692C406.826 29.3932 405.587 30.6742 404.663 32.312C403.781 33.95 403.34 35.8614 403.34 38.0454V55.4331H398.3V23.3032H403.024V29.4263C404.094 27.4985 405.563 25.9401 407.435 24.7524C409.619 23.3665 411.992 22.6734 414.554 22.6733C417.662 22.6733 420.182 23.5978 422.114 25.4458C423.196 26.4569 423.974 27.6721 424.45 29.0913C425.515 27.3168 426.962 25.8707 428.792 24.7524C431.06 23.3665 433.496 22.6734 436.1 22.6733Z" fill="#A1A09A"/>
</svg>
